<?xml version="1.0" standalone="no"?>
<!DOCTYPE svg PUBLIC "-//W3C//DTD SVG 20010904//EN"
 "http://www.w3.org/TR/2001/REC-SVG-20010904/DTD/svg10.dtd">
<svg version="1.0" xmlns="http://www.w3.org/2000/svg"
 width="393.000000pt" height="298.000000pt" viewBox="0 0 393.000000 298.000000"
 preserveAspectRatio="xMidYMid meet">

<g transform="translate(0.000000,298.000000) scale(0.100000,-0.100000)"
fill="#000000" stroke="none">
<path d="M1550 1975 l0 -245 -143 0 c-134 0 -146 -2 -195 -26 -88 -44 -142
-128 -142 -220 l0 -44 70 0 70 0 0 29 c0 40 40 94 80 108 22 7 105 12 223 12
l187 1 0 240 0 240 90 0 91 0 -3 73 -3 72 -162 3 -163 2 0 -245z"/>
<path d="M1530 1425 c0 -84 0 -85 25 -85 22 0 25 4 25 37 l0 37 38 -37 c21
-20 43 -37 49 -37 17 0 22 52 14 158 -1 6 -12 12 -26 12 -22 0 -25 -4 -25 -37
l0 -37 -38 37 c-56 55 -62 50 -62 -48z"/>
<path d="M1710 1425 l0 -85 60 0 c53 0 60 2 60 20 0 16 -7 20 -30 20 -20 0
-30 5 -30 15 0 9 10 15 26 15 33 0 30 33 -4 38 -31 5 -27 18 8 26 18 3 30 12
30 21 0 12 -13 15 -60 15 l-60 0 0 -85z"/>
<path d="M1866 1497 c-12 -9 -17 -23 -14 -41 3 -31 16 -41 61 -51 47 -10 32
-27 -18 -19 -37 5 -45 4 -45 -10 0 -36 94 -50 123 -18 34 38 12 82 -42 82 -24
0 -37 18 -23 32 6 6 12 6 16 -1 10 -15 56 -14 56 2 0 35 -76 51 -114 24z"/>
<path d="M2034 1436 c-19 -41 -34 -79 -34 -85 0 -6 11 -11 25 -11 14 0 25 5
25 10 0 6 16 10 35 10 19 0 35 -4 35 -10 0 -5 11 -10 25 -10 14 0 25 5 25 11
0 6 -15 44 -34 85 -23 48 -40 74 -51 74 -11 0 -28 -26 -51 -74z"/>
<path d="M2196 1494 c-32 -32 -16 -70 35 -84 55 -15 50 -33 -6 -24 -49 7 -57
-2 -27 -29 26 -24 87 -22 112 3 11 11 20 25 20 30 0 19 -40 50 -64 50 -29 0
-38 10 -26 30 7 12 12 12 22 2 14 -14 58 -16 58 -3 0 21 -34 41 -70 41 -22 0
-45 -7 -54 -16z"/>
</g>
</svg>
